<mxfile host="app.diagrams.net" agent="Mozilla/5.0 (Windows NT 10.0; Win64; x64) AppleWebKit/537.36 (KHTML, like Gecko) Chrome/133.0.0.0 Safari/537.36" version="26.0.14">
  <diagram name="Page-1" id="lkQbbIxYhmFbzUgKlSGc">
    <mxGraphModel dx="1877" dy="557" grid="1" gridSize="10" guides="1" tooltips="1" connect="1" arrows="1" fold="1" page="1" pageScale="1" pageWidth="827" pageHeight="1169" math="0" shadow="0">
      <root>
        <mxCell id="0" />
        <mxCell id="1" parent="0" />
        <mxCell id="7k4Pl-tjhXPAWQmDhLkh-1" value="" style="shape=image;verticalLabelPosition=bottom;labelBackgroundColor=default;verticalAlign=top;aspect=fixed;imageAspect=0;image=data:image/png,iVBORw0KGgoAAAANSUhEUgAAA1gAAAErCAYAAADDtiLuAAAAAXNSR0IArs4c6QAAAARnQU1BAACxjwv8YQUAAAAJcEhZcwAADsMAAA7DAcdvqGQAAHfNSURBVHhe7d11vBTV/8fx12zHbS6tpDR2t9hidwt2g61fC7v1ZzdiCyqKiAi22CCCqDQS0nE7tmbO74/ZC/cuIeqixPv5eIx450zv2ZnzOefMWcsYYxAREREREZF/zJM5Q0RERERERP4eBVgiIiIiIiJZogBLREREREQkSxRgiYiIiIiIZIkCLBERERERkSxRgCUiIiIiIpIlCrBERERERESyRAGWiIiIiIhIlijAEhERERERyRLLGGMyZ2bTrFmzSCaTmbNFRERERET+M0uXLqVbt27k5eVlJv0j6zzAKioqorS0NHO2iIiIiIjIfyYUCvHUU0/Ru3fvzKR/ZJ0HWK1ateKKK67g+OOPz0wSERERERH5T+y6667cdtttG16A1bZtW/r165f1AxcREREREfm71lWcokEuREREREREskQBloiIiIiISJYowBIREREREckSBVgiIiIiIiJZogBLREREREQkSxRgiYiIiIiIZIkCLBERERERkSxRgCUiIiIiIpIlCrBERERERESyRAGWiIiIiIhIlmzaAZYxfz5lWlXaquatSoNtZyb+TX9r32uaMldchbXd5/pgQzpWEREREdngWcas25Jn27Zt6devH717985M+g8ZsMvh8x/BcTITAQuCEdisDbRtAR7LnW1smP4rzFwMnkLYdzs3RJ3yK8xeBN4I7LkbBNLLZ6qcBz9OBscDnbeBFgVgrWbZtZKA78dARQ1EGsGu24E3c5m0pdNhwmxI2ZkpK1geaL0VtG8M3tUcV6oWfhzr7jOvGWzXDQKr2+l/LJWE336CxRUQbA67dgH/enqsIiIiIvKvWldxyiYaYDmQ/BEK9wV7NQGHLwAFxXDQzfDk6eD3gEnALWfA/e+Db3co/RB8Bq45HR57DwLtYfoEKLZgVfHJ1Fdh14sh5YMnh8LJu4LnnzQiLoMd94RfZ8Pme8O44RDNXCbtq9vh8PshnsxMWcHjhYteh7sOXX0gEpsHO+8NU+dB5yPg81egIJC51L/MgJ2CikXwxmtw7CXQNArxajj9APhgPOQeB78/B5Fg5soiIiIisglaV3HKPyndb9iMA/EYxOLgGPD56k1eiNfA/Fnw2sXw6tduS5flgT2OgCsuh8tPSLdsGUilIBaDeGLNXdHsFCTiEI+D7axdd7w1CsMZZ7vHc+5x4M9MryeVgkQMEkkwVsb51ps8ltuCtzqOA8mEe77JlHsd/2t2Cj68F3beCR56G2pT7nyvH448DS6/Ai451P1cRURENjoGkiXw8AsNe6o4Nkz7DF55F+LpZ+PGwBiY8SM8+BDMKGuYNvE9+OIXyFrxxMDimbC4NDNh3XFsqKmEEW/B/z0ID9wPn4+HWCJzyb8mlYCfv4eazIS15NhQtQAm/uGWnWW1Nt0AazkLrn4CZs2G2elp5nS46lDwedxg4s3h6QDLC/ueADffBDf0WnP3vvrBVCK5+sDLOJBMusvF08Fenbpgpi4tZWdsJwwX9HGP57LTYW0akvybw0+/rTjX+tOsWXDrwfW6Bxr3y1R3HsnUqs/DqXcO9Zcxxu2mF4+76ZndMR273vklVrP9etuom5KpFcGpcSBeCyNfgGkL0tc7vYzHByeeAzfdBNceu3KA5diQqLf/la5v+vzrPkPbdqf6x6EbjIiIrA+SJXDXk275o46xYfJIeP4NiK2mx86GyDjw9gPw8N0w6IuGz+IJb8FH4yBrp1sJxx4Avy3KTFhHDFQthr77wNXPQqAYcqvg0qPh3k8g8Q9ObNE06HUZVK/lO/eZ7DjccDYMmeI2FMhqKcDCgnAUCougKD0VN4Nr74CWQbfAXVaRHijBhoEPwEknw6m3riIYSDMOTB4Gp50Kp5wKNz23cnBh0v9JxODOi+Dkk+H0M2BCqbtdx4bFs+COy+Gkk+C0XvDSCLd1ZvmNpAquvtQ9notuh1jDXayS1w/R3BXnWn8qLICQf0XLnJ2CiV/CJWe5x3f781CWWDmoSC2C3qe7y9zyLMTTX347Ac/flj633rAofdM36W1P+wquPM89v1POgKfegZrkiu0bB+JV8MajcMYpK67Dw69BScxdLpWAe8+GEUvddUr+gIvPhFuecFsn77/e3X+vRyCZPi6TbnWc8hFceW56u2fBG59ArN7+HQd+fgtOPcX9bH6vgq/fhHNOh5NPg9tfgpLa1ecDERGR9Uld+SKVSk+2+8xbaX56suvmpStJzeq28W8Wtg2k/oBXJsEDZ8E3n64odyxfxHHLGXXHuLziN2O+7aTLd+lyyfLljHtOtg1Oyi1PJOuVD9YlJwVP9oMpe8Ko9+HiXnD+LTDwIXjlOpi0OL1cxudV9xnUHXcqnZ5MuufpOO7nWBtz01f6HNMVyca419hxVt6+nYJY7YoK8X/hcmywzDrWpk0bM2DAgMzZ/zHbmPh3xvi8xuA15o43jLHrJSdqjPnyaWNyA8Z4/cYcdI0xiaQxdsyY6481xuMzJtjDmGTSGJMw5vLjjMEyJtjRmEW2MbO/M2arzd11m29vzNj5xtiOMRMHGJMTNCYYNebFL42pXGzMxXsYE/AZk1NkzAMj3eWclDEfP29My5AxXo8xnvTk9Rmzw9HGTCtLH+gSY7bp4B5PmwOMqap3Dpk+u9mYsN+YSAdjZi3JTF1ZssaYQTcbkxdouP92XY1plO/ejrodY0xJrTFVU40pznfTe5xvTGXc3Ua80piL9nWvc16xMVPSB5isNea+M40J1tt23fbbH2jMlMXGOI4x5XOM2b+zu3795Xx+Y7rub8yiWmOqy43pWWCMZaVvkZYxlseYfXobU1puzNE7uus3OsWYylpjjGNM7UJj+h5pTNCfsX+vMR32N2bMTDc/pBLGjLzFPc5g2Jh99zbGX+9YvF5j9jzDPQ4REZH/jGNM9TRjGm9vTCy2YnYqbszQa4zZ63hjymLG1Cwx5vF+xmy3vTG77WjMgecbM26OMbEaY67b2pgz+xiz337GbNnWmOP7GvPWA8YcfKAxXdsbc/eHxsRSxsSrjXnvaWN2286YvXY3Zv9TjPlyav2DWbdSCWOG3WrMLicZ88cUY/bZ3phRC1ekv3GqMUf0MqZnD2P22tGYQ3obM6XULV/N+9WYSw8xZsddjdlpW2OufdyYBRXGVC015tDtjflgoTEpxz3H6/cx5q2xxjxztTEFUWO228OYt3+tfyTrRtUCY/btZMyHi41x6s1P1Brzwk3GjE2f6/eDjDloN2N22d2YbXY05pUvjUnZxlRMNuaQQ4y5vY8x+/YwpmsnYx4YYkzJAmNO3cuYnFxj9uhtTE2VMcP6G7PvTsbsvY8x3ToZc849xiyrNsZOGjN+mDE9dzVmt92N2baHMcNGG/Pt08a0bGRM222Muf8bY5L1C88bpnUVp6gFCwfuPg+aNYEm6allK+h5GdSkwOeHo3umB6Ooq+VJR/aZjAOV06BHT5i4EBp3hOHvwzbNVoxESLr1yknByzdB/9HgCcJpj8PFPdzlqhbDVVfDUmDPK2D6XBj/OXRqDBOGw779IJmuOTDpWom1fRcqPgu26bTiXJdPTaH5djDfdrc79UO44H6otqHtHjB+BkwdA+2qoLwyc6srjqOuJmz5/PS1MumaLzsJPz0KN7/qjqZ4ySMwaw688z+3a+Ki0XDb225tydePwY9zwVsMg8fA3NnwYG8wKZj8Bbz9B3hD8MpEOGdzd38tusCP02DIo+C3Gh4XQKIGbj0DnvoA8LvnOGsufP0GNPfDrC/hyMthabqDsknXBiXiMHo6DPgK5syCM3d023/HvAuv/brifEVERP4TDphfoF07aLW5O7VuC2c/C7YBbHjnUXjmCxj8EYz4BC4OwpWPQE3cfV5PqYKBb8Enn8GCgTAoHwa9Da8+AgMug9k1sOhXuOwx6P8xDPsQrt8NrrwE5v/dF3v+olQC3voC9jwZGm0Gu3SAe19t+M7V2Lnw2FswdCTsG4TT74bycnj0Gqg4DT4ZCSOHws/PwMODIVVXVqnbQF05z4JeV0K7fLjtUTiiU72drCPJ8TC5CewYbvhKvC8AZ/SDrRrBolFwwg3Q93EY+SEMfw3uOxl+SbitUH+Mg+CJMOQ9ePU+eLQv/O6BWx+AZm3glcfBScDTz8Ltw2DYUBj1Nnz8NEz5A0p+hSPPh14Pw4cfwhu94bbHYIuj4KCucMqtcNEOqx9xWtRFEAxUV8KSJfWmpW4A07wj3PI8nLrH2o32Z1fDVefAnAoIt4S7n4FuTRsGV6S7zg29D67u7+7nhBvggWPc7nkAn9zs3uQKt4CHL4ZGUdi8O9x1phtcLO0PYxY0DGTWlp2EspKM801PS5el+9TaMOwjqIy77zHd/wJ02Rxad4dHXoCicOZW116qAu58ye2K13hLuPw0aNkcDrkJBr0CIz6DJ3q713vffvDJBzCwPxzUHRo1hgPPhGKfG6BOnuG+F5eTD9GAeyP0Bdzunvm5q/jiG1g2F975wW3e3vt/cMdF0LIZ7HgUvHifezNb8hE88XlG07cXzr4JjtsRmreAc/tC0Oc2vU+eVn9BERGR/4AFVit47ll4/vn09CxcvJ/7bLOTMGoMHN8PWhVBbh7sdTXERsKkhPte+Xbbus/PvCLo0BrOPQZyc9znnt+BygT88DK06gFLJ8Mvv4HTDGpmwtx017V1yTgQWwrfzYQjd3Tfn95pW/jtRZhZseK5fdSx7k/h5ObBsYfB4g/h97EwsgzuPBTycqGgJVx3PIz7fvU/YWNZEAiC1wvBAPh9mUusA8YdjCyzCGN53OOwgK8/h8iusHNn91yKNoMdO8Nrn7rBtLcDnLEl5ORAu/buOhUx8Afc99GjEQjlwhsfw+aV8MsP8Npw8MbcboC/jYNkPuy9PeTmQpvj4aZjwBuAgB+CYXe06TWNRbCJW4uoYWNnQetOsPvusG1nCKYzzB6nwIefwBUnQE46Q6+RAXshDP3G/aLaebBDB3d490x2EoZ+5LaQGaB9ezfD1nn/TTeDL50Ce24DrVtD2/Zwyv+t6DM7bc7fC7B8Edh+J9hjj5Wn3XeEkMd912zOPEgBnm1h37bul9rrg5ZtID8vc6trr6Ycfk+3gOXuBk3CbjAVCMJRJ8Lu20J+2N1fIAQdu0OnFjDma3j2QTj9dFhW712uv8RA6c8wuxyMDy7rA7lBNwD2+WDvgyDqhVQcfvmiYW2Y1w+dOrtBlWVB85bu9TDGrfkTERH5T1lAPuy3Pxx4kDsdcABs1959zhkbaquhuMmK0p8vCMEEVDrus61Ji3SgZoEnBMUed7Oe9L/GgWm/wozP4LZb4bZb4K4noFl7iP3VZ/Lf4KTg+4dgcTWcdwDstRf87zmILYNvJ64oF+RF08GI5VbCJpNQvRhqwxCqC5IsKGrsDlpl1x17+l9jVv8zPuuaryu0KYEZGT+rY6dg3lSYuwzKqsHf1C2zkQ4EozlQVuUee2GjdHkF9zoYA9XVDbeXjMNjl8Hhp0C/++CnJVCQ7h1VGwOTA+F0+TcQgIMPW7E/+VO6Unjg3Fvgy1Hw5Rdw/mHu6IGjXoVrb4XEXxjW1MJt8fF6IDHZbU5NrKrrnuVOfj+QgueegdJ6I1TYdV0R64aST0+OcVtoAgFI1tbf4NoLtITBH8BXX2VMo+CLt6Gx1+1mkEqsuFnnpP8X3NoP71oOd27MqkeZqbsBrqnmwziwbDaccCDsvQ8ccDBceSv8Mu8fvGSa/oHpBEAObO6p17pogbcQmuGef01JwxGIPB4oyK/39ypql0RERNZXlhcKG8Nvk1cMTJGogYocaF5XUE8HUqtjeaDLDrDdaTBsGAz/AN5/AZoUQOt/UPm6thJL4fZ34MoH4b0hMGSIexxX7gH3v7Li9Y2lJSsGbZj9O4TDUNgFikpgSWLFQBAzJ6d7vKTPv7omPfBDHGYsqLfjdLnsL1fs/g2hJrBLe3h0iFsGdRz3mGJL4JLDYcQsaF4EiTFQnh7d2LahZBm0buqWreqmVUqXL0u+g6d+h9ffhuHD4dnLoCwdUOXngrUAytMDgcRjcPMlML2ugjsbPzW0cVOAVcfyQE4TuOsR2LOV2xXvo9fgitfXfqhPrw+ufAqePBa8Dnw+CMYuzFzK/UHf7Y6AD96GRjmw4Bu46gWoq6xo1Mj9YrTfGWYug5qahlN5KZy9z4obQrZ5vG43O8sBMx7mrKjUobbaHVp9dZKVK1p+TBL+qGqY7vWtCNBSCyG+mm9ofBlcdAiMHAfepnDFbTDsC/jhM2i5NuPRr4oHwh2hAKAMvpi/otbKGCifAbMMGC807rTm3xUTERHZkHiDcOyh8NHN8MZnMP5buP4s6HoytFnLrv9eP+zSC6a+BE8Oht9+gduuh5nG7Uq4rk36DqbH4ZBD3K5v7drBFh3gmD6wbDCMKXUrYd99Bl5+D8Z9A7c+CYf/D9p1hFN2g7OugK9/glGD4aYhsP8hEA1D+2IY+Dz8NhFevAfGpivD8UM4DlMmN6wMX1d8Yeh1Dky6BW54HMb+Cj985L6CsnA7OKob7HU8NF8Ijz8H4ybA64/ChBictpvbSLA6Hg9Y1TB2GngKIKccRk+AiWOh3w1Q5UBpArruAdvlwP2Pwa8ToP9tMDoFLT0Q8cDMcbC4SkHWGqzhU9gEWRZEW8Erg6FVDtgxePVSGDF51S0xDVjgaQ19zoATH4VtmkDpLOh1O8QyIn1fAC68FPY+EHp3BJ8Nwx+An9Ld/k7qDUE/zJ4Mn09Kt2jZsHQxLF4K8eQaaib+RCoO8/+A339feZo5ExYsgZQFO6W7S9ol8MIQd5+JGvjmA5ifHhK9jicCzb1uFLZ4DpTXujVH82fDtGkNa3zCxdCzufv/S76E3+a6NWk15XDKvnDadfD9VKhdCJ+ng9POPeCaS2HPraBqjvvlz2SRbqFK18plDrZRt1Bha2jf0r1+N/SC2aXuOrFqePYZ992sSB4cfeyaa/FERETWJ74AtG7ZsJeJ5YVIATQtdt+92e00GHIf9P8f9O4Lhb3hiT4QDkB+EyiMuM9Hrx8KiyGSrtD0Bt0BscIBaNzFHRBhzPNw8qkwpxUMGwCFf7fyc2058Mt4aNELtm5UrweKB5p3gT22gvc/gdxiuORyGDcAzrrEfc/snqMgHILz7oHzi+Hys+Cap+CuD+H8AyAQhftehUa/wGmnwNKt4MaekBsGKwL33Qkv3g4Dvsk4pnWk+8HwybeQ+BbOPgXOvRpangSfvAiNo5DTDt4dBaWfuT+T884keHsEtPJDIAzFRRBI5wMrAM2bQTQETdrCaTvB1edCvCs8cDY8fDWccRnsehncuDfMS0B0c3hzNATHwKmnwSfV8MJDbstWn2vht5fhf0PWomy8CcscVjDb1tXwh//MnwzTnqo15snzjQn500Ojn2VMVdwdXvx/x7jr+Pde/TDtqYQxAy43Jpwe3vv5r92hLOsP0/7SKHc4zaWTjNmmsTG+gDEH32ZMwjampsSYQ7cxJhAwJtrMmJ5HGXP0Eca0b2lM2y7GHH6GMUuS7jDtW7c3Bo8xrfdbu2HaPV5jAiFjIpGVp2iOMT1OdodZL//DmBO7pIdYb2ZMzyONOfwAY5rnGuP3uQ3ldcO0J2qNeeBAY7yWMd6QMTvv5x7vli3dIc4tjMktMmZylTF2ypiFE4zZusAdbr3d1sYcdYwxB+5uTNhrTChiTO9njalYbMzRm7nDr0eL0/s/yJiWee6w9mDMqa8bU5s0Jhkz5unD3f0Ec43Zr6cxfe40prTUmKO2N8ZjGVN4sjtMezJmzKePGpMfNMYfNKbT9sYcfYwxB+1pTI7PXf/qAcZUJ9zPccQt7vkGcox5fZx7LR3bmD9GucO2eoLGnLa+5W8REdnk2LYxNbXuz5zUcRxjUklj4gl3mHKT/ru2xpjq6vRP0Djucy2ZMCaRctexU24ZJ5lKbydlTCJhTKrub3vFNuLx9LbXNcc9hlj6p2Dqs21j4jH3fOIx95hiMWNqatx5ddek7jyrq91rlUytGArdcYyJ1brrxOPu+SeSbloybkxtevv/lrpzqq42pjrjPEz6XOLpc6yNrfgMUkn32FPpgq1ju59/MuX+fyLubi+Vvha1NelrYRsTr3dN6rZfXe1e85TtfgZ2ypiaenlnA7eu4pRNtwXL8rh9ciPhlUeF8Yag9x1wXDcIBmHyYHjwE7eroD/grhMOpZtNrPS8CISD6RdD/XDCVdCjrfue1QsvQNxxa4SCYQiF3Joky4KCdnDWqW6t0HcPu31rA3nwTH84dj9o5MCXH8HIT6EcaNUBzr0OirzuvgMhd9/BYMNzyOT3QygMoeCam4/r5DR3hy49vgeE4vDFJzBmGux5BpzR2t1nwO82N/sCcOErcMp+0CgEv34P34yD5rvB9YdDJOoen9fjdj8s7gLP9Yf9d4bqOfDRCPhmArToDCedA/ecCOECePh12H9b8MXc/f/yBxxwFvTc0h0B57t33GHkvT44sR/s0d0d5ei7L2HsxIzrU+9Y9zof3ngE9t8FKmfDyPT+2+0Al9wLN50MYX+6Fs/n5pNwyB0IA9ztWl4Ihty8EPg3RhUSERFZA4/HfVbV7+FS9xwL+NMtPum/Q2H32ej3pd8p9rg/S1M3MpzH6z7zfHWtIF63HFHXOmZ5VmwjEFh5tOR1Iv3uenAVLWV1g2X5fe6/gYBb7giny3h116TuPCOR9HO93iBmluU+18Nhd32fb0X50Bdwy0+Z5cV1qe6cIpEVZdUGn206PZwu29V9Bl6fe+x1r5FYHvfz93nd/68rx3rT1yJUV8bxuGWmumtSt/1IxL3mXo/7GXi8EK6Xd2SVLGNW6keVVW3btqVfv3707t07M+k/ZMCJw5yFbte9wkbpF/rqL+NARRksK3f/DOdBo1yoKndHb/EEYfNm4DHui4XlVe7wlS1buMODOzZUlEBpldt/d7PmkKqGpWXuO0qFjSE3fSOsqYBlJWBbkFcMBRE30yZiULoMatJd4gJhyC+AnFD6GG1YsAhiCTetedPVd/qsKoGSyj9pzrUgnAPFhe4XzBh3MI3FSyHlQDACeXmQKIOyWneIz+JC94Zct+ySpZB03OPJywOrFpZUuDenxk3cUW3qxCqhpDzd5dEDkRwoKlwRABoHaivT18y4XffycyBWBiXV4A9CcWN3eHvjQHUZLEsP0xrJg4IcKF8K1XEI5ELj9LEu338VlJa718/jhbxCd/t1NwzjQKwCFpcBPihq5HYXwEAqBguXuCMt5hRA8b/wcq+IiIiIZM26ilM20QBLREREREQ2ZesqTllde4eIiIiIiIj8RQqwREREREREskQBloiIiIiISJYowBIREREREckSBVgiIiIiIiJZogBLREREREQkSxRgiYiIiIiIZIkCLBERERERkSxRgCUiIiIiIpIlCrBERERERESyRAGWiIiIiIhIlijAEhERERERyRLLGGMyZ2ZT27Ztufnmm+nVq1dmkoiIiIiIyL/O4/HQtm1b+vXrR+/evTOT/5F/JcC67LLLOPHEEzOTRERERERE/nXNmjXbsAOsdXHgIiIiIiIif9e6ilP0DpaIiIiIiEiWKMASERERERHJEgVYIiIiIiIiWaIAS0REREREJEsUYImIiIiIiGSJAiwREREREZEsUYAlIiIiIiKSJfodLMAYQ91lWMeXQySrLMta/m/d//8d+g6IiGRP3T05G/dl3ZNlQ5Otssm/YV3FKZt0gGWMIZFIUFNToxuYbPACgQDRaPQv3cyMMcTjcWpra/UdEBHJMr/fTyQSwev1Ziatlm3b1NTUkEwmM5NENigej4dIJILf7/9LZZN/07qKUzbpAKu2tpby8nIaNWqEz+dbbz98kTWpq+GsrKwkmUxSVFSEx/PnvX+NMdTU1FBVVUWjRo3wer36DoiIZEHdfbm2tpaamhoaNWq0Vvdlx3FYtmwZkUiEcDi8QbQAiKyKMYZkMklpaSmFhYXrbZC1ruKUP/+2b6Ti8TjV1dU0bdp0vf3QRdaGZVl4PB7y8/OJRqNUVFSsVWtULBYjkUjQpEkTVTCIiGRR3X05Go2Sl5dHSUnJn96XjTGUlJSQl5dHNBrF4/HoviwbLMuyCAQCFBcXU1ZWtsm1yG6SAZbjOJSXl1NQUKCbl2xUQqEQtm2TSqUykxowxlBeXk5ubq6+AyIi61AgEMDv9//pfTmVSuHz+QgEAplJIhssr9dLQUEB1dXVf1rJsDHZZAMsv9+Pz+fLTBLZoFmWRSQSobKyMjOpgWQySTgc/kvvBYiIyF9nWRbhcHiNrVjGGEpLS4lEIqr0ko2O3+9f3m12U7FJBljGGPx+f+ZskY1CIBAgkUhkzm7Atm2CwaAe5CIi/wK/308sFsuc3UBtba3KJrJRqusyuynZtM62HhUsZWNlWdaf1hIZYza5m52IyH+l7r68untzXZrKJrIxW13+3xiphCUiIiIiIpIlCrBERERERESyRAGWiIiIiPx1ToL3bulFi5bb8Pq0hZmpIpssBVgiIiIi8pc5qSUM+ngSFz08gKPbNs5MFtlkKcBaA+OkqJg+irfffrveNJj3hn3OsprkP3xZzxArnc/w99/j2wkzsP/JpkTWmWp+eG8IQ94dwezyOHXZdN7PHzH0/WHMLKkbrdBgJxPEamMkkqnlywHEl03mg6Hv8/XkxfXmrlr5jG95//2hjJ8fz0wSEREgUV3Kpx8OYfDghmWTd4d8S2kitbxsUrXod4YPe58fpszDWV5ecagq/Z3h77zLmMmLsZ21L3wsmPAx77//ITPKEmAMTirJnJ9Gc1Tfq9hnq83w1w2cZBzitRXM/O137IxtGDvJHz8O4513PmR+rUO8dBrDh77P57+uaP2yUwlisRjxRLLBs0Rkg2LWsTZt2pgBAwZkzv5PJRIJU1VVlTl7JU6ixkx6eC8DGK/Pb/x+v/H7/CYUyTM79n3RxBIp4ziZa60dx7HNwrHvmc2KIuaIK580tXbmEiJ/j23bZv78+ZmzG6iurjbxeDxzdgbHGPO7OSEaNsFA1Bx9zbsmZjvGcRzz7mWdTG5BoXnuh3J3Sds2Ez551OzQfUvzv6dHmoS9IkOX/XS/adukqTnivq/qbXvVfnviMJOfn2cufq8kM0lEZIM2c+ZMY9e7N9Zn27aZOXNm5uxVKpv5o9muddhYHq/x+d2yic/nN8FQgTnj7kEmkUoZY4ypLptl+u3c2HQ9+8nl84xJmZk/P2fa5+Wbs+/51CSSqz6eVfno2m1N06YdzbMTq4zjOGb65y+aTm2am1uv7GU67XmUmVWSMMYYY8dKzbXHH2COOftxU5uxjVRtpXn9jEbG529t3pubNGW/PG62aNLU7NXvM3cBxzZLxz1hdum+pTnpwudMtf03C1my3iktLTWp5flw/bGu4hS1YK0Fy7LY75zbuP2Ou7j9tuvYp1GCn544h6temkjCdgB3eNX6U53M+Znp6aXWkObKXH/VU+ayy9deaduZ64qsiZ2o5uv3HmHqslX8jotxMDWz+G58kGdHvkyX1B/8tmzF73Dlb3MlMxYuYMhVuzdYrU6DvLi8vtL9NzN/1v87Mw9nLru6ZURENniWhyZd9+C2227nrrvu4rYb+7B5KMUrj77IzJSNAcJ5m3HtJ19xWed8lhhwG6u8tNnqbKaVlfLcNfvi9zUsBq50n6z39/53j2XBgsmc0zmKZVm03/sMJv0+j5vuH8CkL9+hdaH7G15l839ixBffU1775z19ol0vYurCBXzRbx8wBspn8cqX8NCAJziou5cZZdXLl828lxuz4omxkszllk8Nz8ldtF7aavaTTllpvjFrOAbZpCnAWhuWxS7HX0qfyy7jiqtu5JVvv2DbYg9fD+lPbSLJsjlTufGgQiKRCJFIhJanPMPcpZUkYnO5qnt7Ipvty7MvXcNmebnkFnTjiXFzcJZv3LBkzjgu7F5ANJrDDodewtyKePpGuMKk50+iSeMuXHfHTRTlRYhGo/QZ8ANfPn4m+Xk5FLZoy0tfz8ZxDBXvXUDjpk3p/cp0jGMzc8TDFBUUc0n/z0g4Dsmq+Tx/2bHk5uQQieRyyJn3MrdyzT9MK5s2y++nYuYPnNBvJPHl4U8dQzLhwV42gr3a78I5V/Xh5GtfZm5pNcZA2bgHaNukKUfe/3WDtQDiFYsZ89ixRCJRijrsyMc/LyRlGzAOqblD6JibS4sL3qM2YVMxeyy7dG7C9qfeRDyR4rtHTqJxUTMufH44B3SOEI1GOPjGd1lSncQ4KUpmT+aCPXLJieZyXJ9bOW/bYvILjmKioweiiGzYLMtD0Rbbc2mfPlx22WX06XMpJ3bJgapqKtOVYl/2v4mmTbfm4uvPpF27nfj4hxnEUklm/vw87fPyOefez0ik6kojhmT8D47vkk/nHfvwR3UCO1HN6Ft3Iie3GU//nGTEtdvRtGlHnp1UhWOnmDT8/2hUmEckksNWu/dl0tJKKB3DflsfwW/Lqvli0HU0L+7F7JWeGStU/fYEWzRtyl63fI4xDksq5jDyxmvosdt+XPX4C8ydXQ5AfNFE9t6qBZ33OZ5XLt2KSDRKo86788OMMuwVBao0h3lTv+G0zgVEc3LoftiF3HBADs12vJxZ5RV8eGkrcnK24K3ZSWyT4r0HLqRx41YMGDUDx8SZNvo9dtssj0gkQk5uPle88hOJpE3N7++ydZNicg+5ncuO3ZWcnCgF3c9l3PyyzAMQUYC1trxeHz6vD78/QE5uG1q1acK8xXNIxBO8eO/lvLWoMy+/M5InrzmZsqH/44H3xpC0bVLJBPEF3/LM91vw6pB76cRcbj7qIn6vWl5Hzy/fT+Owp97n9esP4JdPBnDhW/NIZryUZScT1Mbm8tFX83nn/Q/Yq0OQ/n0Oos8vO/Huqw/QvKaEyy5/hGXGkLKTJBJJkinbramxU8TjcVIpm0S8nMGXHcMVz4/hmlc+5MUrduPHYQ9z0rXDWEXbhAgAgc0O5KR9GzP7xYt55as52PWeaMlEjCeuO4drnp/Cg4PeY8Rz/2PJkOvZ/6qXSToOdqpefqzH2HFGDbyTA274iL3Oupmhj13NMyNmpisXDMaxicdiJJM2jgHHcUgm4sQTKRxjsFNJ4vFyXr36SS4Z8DHn72jxzRMXM3DsUuLV5Vxz5qG8MrcTbwx+j/18U3h3Vi3xeAKnXjuZiMiGyBib2V8N4oD992OfffbhgAOO4PFfqziqz3l093qxf3udPne/wqF3fMinn77NAfzKKcdfxMTSBE7dvTXl1GudsbCsxuyy59bMm/cxM2aXEi+fwa3PTyN/t96c0MXCSSVIJpIkE3ESE17l0LNuZq/r32X4B0/QeOobHN7rKcqinXnk5ftpkxtkm30v5P3hN9AMWN3PJzt1z4dkglRiAdceezITul/MkJEjuaDbYk4+qiej5tg4tk0iEeePsd/w8x6P8dYdJ1IzcyynPfQZ8WTDZ0uiuoJre5/M+zWt6P/GEK7cLs7DXyeJJ1LYto2dShKLx7CN22vCTqVIxBOkUg6xOT9y6sl9aHrs9Qwf/hYntC3myT6XMDaVImWnSCbiJEc9QNOj7+Dpm47CM/tNHnzyI1J6qEgGBVh/g2VZeH1ekulm+AvueYPvPh3Kfu0Ms5eUk0rEqKqpTRcULYhsz1MPnMGuu5zKUQc1Jlk5mkXLKzwstj/kUA7eZWcOOeVEGjtxRo+eiO2sVCUDloddT+7Drrvsys5dOpEMteTRK49ml333o0eRl5pffmbunzRXx+b8zA3DJ9PkkLO56tBdOeL6h7nzlgcZfn9PgpkLi6T5A8WceOl1FAQrefyZl0mknHR3CkO8ZgZvvv8VXfY8heP278Eex/bl2TOa8/vrd/DW5NrVDuDipBJ8P3IICTufy/pewm4HHsPTZ3bE+xfuSh5PkFOff5LDd92dk88/C78TY9asedTWjOeHH+ew9W4nsPc+e9LrmsvYOerNXF1EZMNkIF6+hJ9//pnx48fz88RpJFM2ISyqbAOdT+GrsRN49LRulM1fRDJkk6haRk0ic9iJFbxeH6ecdCxO2WKGjp/B7PE/8F2lzdFHH0Ce17M8SHLsGAMffYk51UV04mfGj19K192aMvfzx/lhUZSuW3UiGvBT0KQ1O+7caa3KFsaxqfrsYV4dt4g23YuZOG4cTuNtcJZM48vRU5YP0tF0l0O48fBdOPjii9gVh9Ixv1CW0YQVX/IOP0ysYMt9L+XwQ3rQ66qL2MbyrL4ZrZ5gix34+MdxvNDvXIoS80kGkiTKKyh3HHd1y4N3p5u59OR9OfjIC2ie57BowfTVPudk0/UXijICgHFr0SvKy/H5vGBg8rt3smW3bnTf7xQef+MjnAbBkQW5RTTxefH7vFgeC4PbF9q9X1jk5+bg83mxPO4NrH5f4Posr4+8gny8Fng8XghHKAwE8HtzaFbscVurli9tljfK158bj9WQTKUoKMjD67EIhTtz7kUnkxMOrraGSQSPjzY7HUW/vZox8a07uHlkMt0tw2Db01i6xKawRWeCPg8+v4/2nTpj7GXMmOd2E1wVYztUlFdgeRrTvEkOlsdP4yaN8HpWzokG9wuTWX3g8YZp2SyAB/B63QDKGAfHXkp1jaGoeUf8Xg++vOZ0b+K+HyAissHzeGh/0Hn8/vtM5syZw+yZv3HHbkUMvOdMHvsuSSJey80ndKNbt+6cf9mNfDU78+65MsvjocU+PTkkEOOl1z5m1KiPSTle9tt9RzzWivuycVIsXlqDiS3i2Xvv5u577uPN7xdTVGSYM7+ywTbXmnGoWLYI24Hxb97DXXffw/Nvf060sIiSRfOWl2dyI2H8/gCW1+cek2lYxgFILVtMNR5yOnQgx+/Bm5dPU8tqWMapKyIZGpSdbLuCF07YgW5du3LImf14f9LS+muB5cHTvCm5Pgufz4vHWn2ZTTZtCrDWkm27zcOJRIzRL/bhx+lVbLPdoQTMAm6/7wWsvN15ctj3fP/arQT8vszV/33GsHTxMmzHobKsank3gGAogtfro7S8yu1yFV/Is488Te0aarVEAALBAnr1f5ddm6WYOXNOenhfC6+3C40bW5Qt+I140sZO2Uyb+BuWp5gtWuVQ77ncgOWxyC/IA7OIBUuqcRybxYuW1htO2AILnLkLqbVt4vE4iUQqYyurYuHxNCEasSidP4lEysaumMfPi5XHRWTjYGHh9QfJyc0lLy+P/PzG7NGjFZgU0+bMZeTNxzHgGx+97vs/fpw0m8t29+K1/iQKsDzg7Uif2w+CL57hjhc/wrQ8lV275GPVr/iyvDQpDmP5t+DN6b8zb8ECFixYwB+zZ3Puzvl4PO7tGwMm84Xy1bEs8hs1xbJgv4d+Ys48d5tz58zmoYv2x1c3BPxa8DZuRhRILFlGwnaw5//BhLogavlplLNwqYNtpyivqsRJV879OvxZbv1uCXueeC0fjx3HI0d0We0zTGRN1j7HbsKM43DnQYXk50TIyS3goOuHk2janUsuO4NwwIPjOKRSi1ky6QfuffRpEqkEtfHUSgNV/FsC3feiucdmysuPMHDoUO585AmSKbdgGmm9LQ+fsA3z33mEG14ayuD7LuPqm69j96MfpzRzQyL1WR78+Vtw0VnH4Uu3FoFFKLw5Rxy6C+M+fpFnB77F4Gdu4ayX5tP57Fs5oUMI72oeTt5AmN16Ho/XlPLUI//H0FefoPczk4glDVgerGZd2LoQ4t88zEuD3uGF+69iyuK1CbA8RKJbsdfOrRnz5eu8M/gdHrzhHr6vrM1cUERkg2QcmylDH6awIJ9IJEI0r4jdbvkR8rfkzP2aYxkDVLO0FL57vg/3j7JJ2rUkkn9eMNny0D5sXlDB4mV+zn/iDpr5G75D5fWF6dn7cFp4p3Lsifcw+K0BHNepmBbbXsF8Ax5PCK/XYfHc3xj54Vhq6q27OpbHR3S/MzisVQGjrj2c/gPfot8Zu1JQ1Jlh02v+Unkq2vRY9t+lGePevYX+r77DTdfcyZyk+5taHq+X7rvvgc/U8uJjjzDk7QE8+8LQ5b/XZYwDxqEqVsa4Ya9x+2eTMSZGTayu15HI2lGAtSYeL/5ghMLCQvJyc8jJySEnJ4/N2pzBF999yqEdfQTCrbnvrsvw1E7n5iv7Ej7yJo4pKuSHH6fg9XgJRaMUFuTg83qwPD7CkRzycnMIeC28gRC5eXlEwyG8Hg8eX4D8gkKi4QC+jFJpMJJDbk6UcCiAx+slGM2hIC9KwO/F4/URikbJL8jFZ1mE253A3X2PI770C67pcw979+pDYVER4VAAvz+Xnne/w6s3HsEbt/ThsidGcVDvuxgx8EIKGuxRBMBDNC+fnJwIAZ8Xj8/PMVddyyFFRRTk5RAK+PEGolzx0DsMffxknrnpGvre+wb73Tacz+45Ba/HQyAUITc3h2g4oye+x8ceJ93IuKdP5Lu3HufKx97n3nN3pVFBHpFQEI+vA/e++ChF+ZU8eOPVLNnxJrbZogn5OWG8Xg/BUISc3FzCoQAWEAhHycvNcfN5NJ+7X3uXUxsv4YZrr6a821Gc2jq8vBvuamI+EZH1ntcfIJqbT0FBPrk5dWWTHAoKC3lp+Ej2bhbhkFtf49JDm/HBPVdx6ad5vPPslRTnVDFl+hL8gSB5BQVEQr5VdskuaN6VHbt2oqjrnly3S3T5/TIUcfcTCYco3v1iPn//WfJ+e5G+fW9k9maH88mI22huQW6zrel7zJ4snjSUPhf9j1nLB/VyX3UIhqMU5Ofj91gEQmFyc3KIRsL4/N144bsP6elfwl1X9+WFX3P45KtPOLB9BI8vQE5OHjnRMD6PheXxkptfQDQSwp/x4q43EOHOAYM4pXEJt/7vMqq3PYp9vF48gOXx0+KYZ7jixD1Y8NHDXPXoTE4850QK83KJhPx0P7gPT57SlHFDn+WmJ4fwTP87aF9UyVsfLsHnDxLNySEvJwyAxxciJzePaCS82opE2XRZZsUQMutE27Zt6devH717985M+s8kk0kSiQTRaDQzqSHjjoBWG0/Wm2nh9foIhoPLo9NUMkEymcAxFv5gEDuRwPL68Ho8GCdFImUIh0N4cEgmk6QcQyAYxuMkiSeSeHw+/H4/GJvamhi+QAifz9vgxpdMxEjZ4PX58Hs9JJNxkrZFMOjHa7nnlEwZQhG3xSCZSFA6bzrP93+Boq17cvJBOxMKB/H7/Fg4OKkksUQKY8DvDxAI+lXo3Eg4jsOiRYto3rx5ZtJyNTU1+Hw+AoFAZlIGh1htDCwvPr8fn9fjzqupxbG8+P1+/D4vYEglqxn17AOM/COP0/53AVvmRwBIJeMkUwbL6yUUyHgPyrhdNGpj6e8MDlgWlsdPMODFSbnfEQcPHo+FxzjYlo9QwI+dSmDbDpbPT9DvI5WIkbDB5/NBqpaXn7yXyZUFXND7ZKKV4znp0FP4sVVfFo26lagnoz++iMg6NmvWLFq1aoVnFd3dHMdhzpw5tGnTJjNpJY6dIpGIuz9pUY8nXaHl3qZtt6yTtMHjJeiFpINbtrAgHk/gDYTw+zwN3q8C974cj8dxjIUvEMSfjh6S8Ri2Y/D4/AT8XoydIhZPYjsOXp+fYDCIW2wxJONxksmUu+/wigDEODapVJJE0iEYDoOdJJlysDxeQkH/8meObTtYXh/+9P6NkyIeT4DlxR8M4sEmVhPD8vnx+/0rBYqOnSKVTJK0bXyBuZyYvy2j2p/N2O8eok3E55ahUjYenx/LcX/PyusP4vd7SMZrSaXc6+bz+UjG4/iDYSxsbNvBwUMkFMCx3ZEJLY+XQCCQPndZnbKyMnJzc5e/L72+WFdxysrfclnB8rh9nOvVEOXkRAnXC64AfP4A4UgO0WiUgM9HOBIhFAzg9/sIBEPkRMN40zUugWCISDiMzwMen59wJEIwEMBjWXg8PqI5OQQDK9cq+QMhwuEQAb8Py+MhEAwTjYTweb3LtxuNhvFabv28PxCERAVvvvIsQ774hXA4RNDvx2O5v5/h9QeJRqPk5EQJKriS1fIQCkcIhYLp4Co9LxIlEg6lgysAC5/fw5QPX2dA/3dZWO+B7fMHCYdDKwdXpL9jvgA5OTlEw6H0vsIEAz7AwuMLEI5EiUbChEMhguEIkVAAj8fN46FwmGD6nUdfIESk7jtibCaNH8WLD97Orjttx1Y9ejHZbM511x1H1H21S0Rkg+Tx+giFoxllkxwikQg+j3t/qysX5OREyYmE8Afr7o9+vD4/kWiUoN+7cnCFe18OhsKEw6HlwRWAPxgiFA6n3zO3sLxuGSYnJ4dwqC64wi2DBENEcnKIZLTuWB4v/kCIaDSCz2O55adwKB1csfyZE023lNXt3/L4lj+LvBZYlpdwNEooGFipvET6GgVCYaLRKEG/j2AwiN/vlq2Wl6GiOYSDQULhEOFImIDf7eEQCIaJRHOIhMME/H6iOTkE/F78/gChUIhIyK2Y9Hj9hMNhQkEFV7IyBVgbsbwWnXjqlXe54+Kj8K6ixkwku4L0vO0F3nr7IbYJ/rcDvfgj+dz/0jBGvDuY1199hdfeGMR7H4zg+sO2wlpVgUJERDZSLbh+8Du89eQFNPKrLCT/DuW0jVgot4hd9tyP7bu0xvtXflxI5G/x0mrb3dlrrx0oXl4b+V+x8Hjy2H6//dj/gAM4YP992XnLlqxfHRNERGTdsoAIW/XowZ47dyLq11NA/h0qdW/kLMtSjb38a+ry2/qS45Yfj74HIiKbLD0D5N+mAEtERERERCRLFGCJiIiIiIhkiQIsERERERGRLFGAJSIiIiIikiUKsERERERERLJEAZaIiIiIiEiWKMASERERERHJEgVYIiIiIiIiWaIAS0REREREJEsUYImIiIiIiGSJAiwREREREZEsUYAlIiIiIiKSJQqwREREREREskQBloiIiIiISJYowBIREREREckSBVgiIiIiIiJZogBLREREREQkSxRgiYiIiIiIZIkCLBERERERkSxRgCUiIiIiIpIlCrBERERERESyRAGWiIiIiIhIlijAEhERERERyRIFWCIiIiIiIlmiAEtERERERCRLFGCJiIiIiIhkiQIsERERERGRLFGAJSIiIiIikiUKsERERERERLJEAZaIiIiIiEiWKMASERERERHJEgVYIiIiIiIiWaIAS0REREREJEsUYImIiIiIiGSJAiwREREREZEsUYAlIiIiIiKSJQqwREREREREskQBloiIiIiISJYowBIREREREckSBVgiIiIiIiJZogBLREREREQkSxRgiYiIiIiIZIkCLBERERERkSxRgCUiIiIiIpIlCrBERERERESyZJMMsCzLwhiTOVtko2CMwbKszNkNWJaF4ziZs0VEZB0wxuDxrL7IZVkWHo9HZRPZqP1Z2WRjsvpv+0bMsiwSiUTmbJGNQjweJxgMZs5uwOv1EovF9DAXEfkXJBIJwuHwGguYkUhEZRPZKBljNrlK3U0ywPJ4PKRSKZLJZGaSyAbNGENNTQ15eXmZSQ34/X5isRipVCozSUREsqjuvlxUVLTaAMuyLAoLC6mpqVHFl2x04vE4Ho9nja24G5tN50zrsSyLgoICKioqNrmIWjZexhiqq6sJBAJ/ehOre5hXVlbqOyAiso4YY6itrf3TLoKkK3/rLy+yMUilUlRUVBCNRjOTNmqWWcff4rZt29KvXz969+6dmfSfi8VilJWVUVRUhM/nW23Nksj6znEcKisrsW17jbWk9RljiMVilJeX06hRI7xe71qtJyIif85xHGpqaojH4zRq1Git7q/GGJYtW0YwGCQSifxpUCayvjLGkEgkKCsro7i4GJ/Pl7nIemFdxSmbdIAFkEwmqa2tJRaLqSZfNkiWZeH3+4lEIgSDwbV6iNeXTCaprq4mkUhg2/ZfXl9ERBqyLAufz0c4HP7Td68y1bVi1dbWkkql1JolGySPx7M8/6+vwRXrME7Z5AMsERERERHZ9KyrOEVtzyIiIiIiIlmiAEtERERERCRLFGCJiIiIiIhkiQIsERERERGRLFGAJSIiIiIikiUKsERERERERLJEAZaIiIiIiEiWKMASERERERHJEgVYIiIiIiIiWaIAS0REREREJEsUYImIiIiIiGSJAiwREREREZEsUYAlIiIiIiKSJQqwREREREREskQBloiIiIiISJYowBIREREREckSBVgiIiIiIiJZYhljTObMbGrbti39+vWjd+/emUnrBWMMqVSKWCxGKpXKTBb5z3k8HgKBAKFQCMuyMpPXijEG27apra1VPpf1kmVZBAIBwuHwP8rnxhhqa2tJJpOs48ebyF9mWRY+n49IJILH8/fruOvyeSKRUD6X9ZLP5yMcDuP1ev/2Pf3fsK7ilE06wHIch8rKSmKxGDk5OQSDwfU6E8imybZtKisrsW2boqIifD5f5iJrZIyhurqaqqoqotHoPyrAiqwrjuNQVVVFLBajqKiIYDCYucgaGWOIxWKUlpYSjUb/cQFWZF1wHIfa2lqqqqooKCj4y/djYwzJZJKSkhKCwSA5OTnK57LeqbsfV1VVkZOTQzQa/Uv5/N+0ruKUTTbAMsZQUlJCJBL5Ry0DIv+WuodqYWEhgUAgM3m1SktL8fv9KnDKBiGVSlFWVkYkEiESiWQmr1ZFRQWO45Cbm4vX681MFlmv1FWceTwecnNz17oMUlNTQ01NDQUFBX+5sk3k3+Y4DjU1NSSTSQoKCtY6n/+b1lWcskmWtowxVFRU/ONuVyL/Jr/fT+PGjSkvL1/rLiE1NTUYY4hGowquZIPg8/lo1KgR1dXVa53PE4kEyWSS/Px8BVeyQfB6veTn5xOPx0kmk5nJq1TX+vV3ejKI/Bc8Hg85OTkYY6ipqclM3qhtkiUuYwzxeJycnBwFV7JBsSwLv99PbW1tZtJK6vroFxYWKp/LBsWyLKLRKFVVVWsVZNXU1JCXl6d8LhsUy7IoLCxcXhH2Z6qrqwmFQqoskw1OQUEB8Xh8rfL5xmKT/JY6jqOWK9kg1RU8/0rtvsiGKBgMUlFRkTl7lWKxmFquZIPk8XjWeqCKysrKv/xuosj6wLIsLMtaq3y+sdgkAyxjjGqAZIPl8/k0EqBs9Lxe71qPBGjbtirMZIPk8XhwHCdz9iolk0mVXWSDpABrE6KHsWyolHdFGtJ3QkRE1iebbIAlIiIiIiKSbQqwNiB2spb5M6czdeo81m7MIZENj5OKs2T2DCZNnk2tMWw6HQpkU+LYScrmz2LixBlUpWzlc9koGcemeul8Jk+aRkl1jLXrDCmy4VOAtcEw1Ex4g577HsOQmUuxM5NFNgqG2KyvObxHD54YMZ4UoM5fsvExJEpnc/6xB3Ldw8OIZSaLbCRSqSQPX3kip5z/BEuSju7nsslQgLUmxsFOJaiurm4w1dTWkkiuqHE0jk0yEae2NoZtWGl+TU0Mx1n7+kljp4jHYsTiCepWM3aCcT/+wZGXXs0Fe3cjtGJpHMfBttdcL5SMx0gkEqTstT8O2UQYg2MnqampaZjPa2qIJ1M46ZdSjXGwkwlqampIOc6KfG4cUok4NbUxUn+SD+szjk0iHqc2Fl+Rzx2bmTPms92h53D1mT3Jqfc4No6DnVpV1YIBYxOrraWmuppYLP6XjkM2FQbjpIjV1mbc02uIJZIr7tHG4KQS1NTUkqzfsmQMdtK9zydXmQ9XzTh2+vtRi51ukTWOQ1nJQpp0OYRb77yQAo9neU43xpBK2at5GdyQiMWW53PdzmVVjJMiHsvM59XE4ol6ZQX3vh+rrSWRTDVoQbVTCWKx+Erz16Tu+VBdXUPKdp8PxtjYqcXEA1144LW7aJsTqn9HX0M+dy0vQ9XGlz+HRDYUCrDWwDg2swccyxZbbNFg6rBFN+4bNoZkysEY98by+iVb07Xzvny9eMUNw7GXcNveu9FlrwtZUK9A+mecVJxzDtmSnqdcT0V6sLiqxXO478VXGPrlNw1qgJKJOD8OfJuv46vpNJguLAy+pCNd9ruehcm1LxjIpsEYmyUjb6FDh4b5fIstOnBOv0HEEyk3ADIO3965N1067cLbs1PY6QKpcVK8dlUvuu54OOOXVq11Pjd2kvtO34ru3Q9napVbMZFKxHnh8dv47OsPmVeSWL5sKhln7q/f8eGMeQ22AeDYNrXzPqdHp0507tyZzruczNSqWlJ/oVJDNgHGUDlhMJ06dczI5+3Zu+ddLElXaBnjMGngNXTrvA2P/rh4eaWUMYbvB91J9y234aXPp619PndshlyxNd267s+oJe5adirB0LvPYvio4fwwrXL5Pd1OJYnVzuCd975aqeBpjCER/4P/7bwdnTt1Ysd9D2Pq4tjyygmROoklUzlsr61WLrt0vJCpsbh77zawcPRbdO/alav6f0KiXrS+5Pe32GvLLbni0VENtrtGjs3oh46ga9fdGPSHjTHgpFJ8e9thvPrpJ7zzQwl1Y9E4dopY7Vxev/NF4qutDDMkEwu4YdftaX/kdX9aiSyyvlGAtSZOikRNBQsXLmTR4sUsTk8LF87mlhMO5o6Rc0g5Bo/Xx5G3vsnuefMZOPDreq1EEQ68tC/XXHwsORmbxphVPkDdeRYnnHcN557Wk6AHIM6vX37Ghf/3AY+cvQvDfy1Jr5Bg1AO9OPrSB6mIJVm5gsdg20m+e+0mznx5IUtKKon/hZpX2UQYh1SsisWLFrFo0Yp8vmjRQl69+xxOHvAbCdvB8njZ+br3OX1bP0/f9TaVy4N1i+2OOJlrLjubFhF/5sbT+brenHQ+N0CPU6/mmmvOpjgIkGLKZ++x68X9eeve85kxcxbuUg6/DL6XPfY5jRllmb8X45CI/8ahuxzB3OCWXHLF5eyQ+wu7tO/Bt7MrVPiU5YwxmGQtS5csZtGiRcvz+eLFixnz6R0cdcsQYkkHy+Ohy8l30O/Ejjx340ssSKz4SYRWW+/H1VdfzQ7tGzXY9op8viLD1f+725HXcM01F9Au6i479+dviBx4J0MH3IN/8a/pYbod5v40lO1a7cBnc2MrVRAYx+bZi3vSf1Y+p/c5jxbzvmfPg89haqXeU5T6DCYVp7Rk6Ur5fN4fL3JsrzuoSTpgWbTY9TgG3HgQo154hxmxFZW0kYKtuOTqazhij7YNtkxGvk7PWH4/33yfc7jmmkvZJh/AUDp3CrPbXcjggS+xdWIM5TUpwFBdNp3jtt+RAZOrSaZWHTgZx+bnD17i2YlTWLSsXAGWbHAUYK0Fy+PhxpFllFfVUFNdyaxvH6Kxt5qvXx9G3LZxUkkqlpZzxgPPcHTXJGN/L0kHWT6atmtPx3Yt8dXbnnFsls38jS+/+I4F6Zc+k7Eqfh7zFT9MmErKdtisbUfatmqKxwII0n7brYjU/IGd15k9uuSDMZQumMzHI0dTWlvKxB9+YOaSigY3vljFMobfdjD7nvsQ8aR+N0n+3EkvzaSssoaa6irKpr9Fh2Cc0ff1Z1EyhbFtKv6Yzl4X38n1JzTh16nzSaQfjgXNN6fjFm0IeVfcUoxxqFw0i69Gfc2MBSU46ZrLaT9/zbejx1JZm6Lx5h3p2LFNuiLBx+bdu1IcSLDE345durbEAuLlcxj12Xcsqalixvgx/Pr74uWtZxiD55cv8HXZjfMee46+F1/MZWeeiFU7lZFjJq9UiSECsO+1r1FSUUNNTTXVC75ip3wPk54fxKREAuM4VC2cw2YHXsqj12zPzInTiSfdfB7Jb0LHjh0oiAYabC9etZQx33zDL1Pm4aQLoQumfM/X337HwooEeS060KFjW6JeAIviVm3ZvFkhC5OF7NCtI5ZlkaxaxA9ffcO8qhrmT5/ATxNmE19e+DRgzWTm3Bbsde3t/O+CPlx4fFsqJr3DmDmGtfwZJdnEdDv8IpaWu/m8pmQqR7cvZt4nX/BdLA7GIVayiFSb47jvjuNY9PMEKmvdcoI3kEe7jh1p3ijSYHt2opJff/iG78dMo65/QfnssXzzzTfMXJYgUtyGDh3ak+8HsMgpakqHjh1YVhFny85bkxP2kqotY/x3o5gydyklC6fy/Q9TqFpFz5rK+aO59/p7SaRUTJUNlFnH2rRpYwYMGJA5+z+VSCRMVVVV5uyVOIkaM+nhvYxlWebaYYvMkmUlpmTZEjP51fNMNBA0Jz/4lYnFY+ar524ynVoWmuImTU3jogJT0Gob8/qoqaa25g9zRdd2JtzmaDMznjBO3XbtpJn97nUmL6fAnD9ohoklk2bR9M/NNi3yzOEXP2uqypaYI7ZpZLbd73yzuCZppo14zHRv38w0blJsihs1NV13OMb8uixhfnz7WtMkN2JCwZApKG5tHvhognGcur0Ys2jKd2abNnnmiPMvM/v6/Sa/63lmemVsebpsuObPn9/gs14Vx3HM0qVL/3y5VNzMHdzH+Lwec/zzU82ipSWmZNlSs+iTO02e32fanfOWqYzFzPRvBpnt2xSaRk2am8aNCk1+i47m+qdHmVi8xjx95sEm2mwH880fy5bnc+PYpmTsQFNUUGAOv+l1U5NImXjtLHNk+6jpsuNlZlZJibnuoMamoGgnM6HMMQsnfmUO2K6VKS4uNk0aNzZtO+1rPp0XN1UTnzTtC/NMKBAwuYWNzTm3v2tSKTu9D8fYqaSpra01yZRtkvFq80q/k0wkWmge+uA3k7LXfO6yfps5c6ax7fRnvQbz5s3783xup0zZ6AEmEgqYva98ySxcUmJKSpaZZWNfN00jQdOo592mpCZmqkp+MUds2cw0atLUNG5UZAqatjZH9nnTVCWT5tNnLjP5hU3NI0N/NvWPKrZ4kumxZQuzw1F9TFU8ZezUYnPljoWmaYtjzJjFpeaVXs1MTm5n8+GClKmqKDUXHtLRFDVqZJo2bWyab7ateX1atamcOcRs06TIBH0+E8ktMrv3vNeUJlMrjt+xTTxWa+KxWlO2bKw5vXUjE83b34ytdoyy+YZtwYIFa5XPZ82atRbLOaZ27k9m+/YFpkvP8838JSWmpKTElEz/xmy1WaEp2LGXWVQdM8nYH+bi3duaRo2bmOLiRqaouJnZ5sj/M6WOMbMnPGO2KGpszrj1gwb53I6XmysO3cK07LCLmbA4ZRy7wjx5UAvTpOleZviCcvPFzbuacLileW5qramuKjcP9traFDUqMs2aNTHFjTua+z+ebCoXjDZ7tmhigl6PCUfzTctW55sZ8WS9vRhjJ6vMcxccYbptu4fZvmmxsbY709TGEg2WkQ1PaWmpSaVW3NPWF+sqTlHVwFowBh4+vh1tWremdes2bHvuy/i2OImbz90Br8dDRbiY0/rcxOhxv/L2fRdSNX8Kn/08jZRtk0omicUSmHrdPSzLQ4u9T2XvZrW89egrLK6pYdZnzzFjWZDDeh+PhUMymSCRTJBMlfHQnfeyLGdPPhg1lveeuoI/Jn1E/8Hf0LXnNdy8z+b4fJ3o/8tYLt67S4Mx1yKFLejzzBcMfOQCCn1ejd4jf+q9S7amXZvWtG7dmnZH3EGi8a4MvO8gAh4P8ZpqDj75fD764Te+fL8/jWrn8N13X5KyHexUkngsgd3gXUOLgs57cEK7FF8PGcGc6hrKvn6az2ZaHHLrNRR7Dalkkng8ju1UM/iOC/lu4Wa88NGPfP3pc+RW/MT9d76E0+p0HrzkMLzeIvq99zmPXn0oltu0C5aFx+sjFArhMXF+fu9JHnr6fXyRZmzbsaV+gFZW6dvHz6dd29a0btWaNnudTam3CY/0O56w1wNzJ9P90F688flExo/7gp0iixn36essjbnvSMXjCVIZXa0DBS04dNvNmT7+J6ZU11D1y/u8OiHJnjdcTeeQRSqZIB6L4zhxRt95BK+NDXDPkB/5ccx77Jwzl+t73cKy/H15/pkbCPs8nHRTfz58qy+5nhWPaMvyEAiG8Hng+lOOZWipxaG3X0nXgFppZdWmfTyALdL389Zb78/ERbWcf8HZ5Hg9WAunU7DXCTz+4UR+Gf8tJ21eweSP+zO1DOxUikQisdJgLpY3xF779KBy2RxGT/qd2j/G8dB3lXQ+/gR2z/G4g2bE4thOikmvXs/tw0ro89K3jB37MWd2SnLXhbcwzdOZt799i445sN1B1zP+l4doVa/nAxhKx73Lk5/M4sw7bqUwXL//j8iGQwHW2rAgkldEo0ZFFDUqprhREfbswfzvtmEkHUOPw0+l14lHY41+kOOveRwLZ3mf5FWyPHjyu3D+6ftgT3ycL36exdtPj8DucCJHbpOHd/lD1eDYE/j2m7lUzPiIQ/bciaMuug+v38uYX6fh8wfweb34vD4CgRChgG/5S6QAOY1bceaB2xAO+lcUSEXWIJhTSFGRm88bFTfCV/YjJ574HOVJh/a7HccFF5xPo9lvs+8RZzG/2mCMs/rfNbEsrEhLbrv+ODxzh/HyF/N569F3qW2xJxfvU4TftyKfG2YyZPBUTNkv9D5wJ/bY7xzmVKeYNeMH8Pjw+Xz4vD78wRChoB9P/YxuDI6dYsb3b3LCBf2YVB1gn1vfYo/2+ekutiIN+UM5NCoqoqhRI4qKGxNxlnHZhY+yIG4T7Hw4l1x8AZ0SP3HgPgfy9QIDxlnj+3yWP49zzjqSYPmv3PVuCV++M5Ly3NZccEBbAn5vvSWXMuC5CdiVM7nmyJ3YYcej+GJ+DTULP2RxlQe/34/P68EfCBEK+PGuKgNbHu57cywvXNieD64/gf/7ZP5fGqVWNh3eQIiiRkXuPb24MflhH8/e+xAzalJYm+1O30suZLeiUq49+1hembIW+dwbYL+DDyLHVPHy8AlMGv0Vi4yHnnvtQqhBPo8xYvh4klVLeOj0Pdh++4N4/pclmLLP+XUu+AMBvB4LXyBEMOjmeXDv5XZsIfefdzEtT7qOU7oWYBwHjE0imVI+lw2KAqy1YFkWfd6YwpRpM5gxYwa/jRvF7u3CfDvqdcorqnmoz6F07NSJ44bkcPOFxzRoRVody7Lotv9pRKwk7z15O6/ONPQ8+wgae6wGw5i6L09DfqeTePDRR3nyqad49rn+XHvS7nhW9fAV+QeOfHg0k9P5fOqUCVy8T3OWjH+En2aU8uFDvejcsQP73/ENd958NY2jmWuvWs5+19C9yDD0gbt56pcl7HBgD1p6M1tU3QenaXIAdz/yKE88+RTPPv8Cd191Nv4GtZsrM47NnFEvccJJ5/FHtcOhVz7FoHO64NPXQ1Zj94ufYOJUN5/PmD6JZ87sRu30V3j720X8/vZVbNOlPTuefBN9b7iLbZtnrr1qoe1P5fD2Hobeci/Pf/09zTtsTafG+RkP2XQ+z9ua2x59lMcff4Jnn3uBJx++n83z/iTDGodUMomxfERy89nxlOtp7o0xesTn2HoJS1ah0wG9+G1KOp/PmMYnN+9PcsFn3PPeXJZ89QS7bdWOzlvvSLueV3BYp8y1Vy3Yfk/67hDgmwGv8cqIgeBvxS47dMSbkX2NARNqyf8e+D8ef/wxnnmuP889+yw7ruH7ZIzNjI9e5YnfPSz75lUu6Xs9E8uqYNZXnHfF9cxapl+Mkw3Hmksu4jKGXz97i7cGDWLQoEG8NfhDZi0qIeAPk4rP4IvPJ9Fqy3N478kr6d4qn3q9OlbLsixab9eDA1rmMPTNwVT5Czl9320yujR5sDxd6NQhSKqslO33PoB9duwKqSRNigqpH4qJZMPM74fy9ptuPn/zzfcZPXkmWFEsez4jBn6O7e3Bu+89z97dm666dn0VQrltOXTP7Zj63ctMW1jLYYceiddbv7bTwqIVO+4QwSpZRLPt9qLngbsTNklyIo3wZj65GzAkEvP43zW38OuSID2ufpWXrz+WoH8tvoSyyVow8VsGp/P5wEHvMuzb8TgmhN9TxpBHX6cktjWvf/s5x+/RFu+fBPh1ApFmHN37ZKx5T/PBqHnseNiFFGUMhgGN6LFPHp6aCswWu3DkEQfQyJPAaxWTs9IInPUYm9SMQbTLy6P7mc8yv7yWxdO/pKTWYvOuXdUVVlapdO5UBr/l5vNBg97mtZFfYzt+osEYn786mJmlm/H8lDlcdtQ2eBrck1fPFyzixFv7UVw6hMde/I1Wh9/Cli0aDoYBQbbdpgk+O86ipltz1FE9aR20MXYBxUXBjGXr8xBo1JZjjzqcdi2KCAT8biHV8hDwBxr00BFZ72W+lJVt6+rlsX/irw5yARifP2ACwaAJBoMmEAyaUCTHnProt6amqsyct39rEwlHTJNmzU2zpo1MwOc3B17/hikpnWn6dNjcWM0ONb/Xxle8/L+cbcY/uL+JhEKm7ZZ9zMKkYxxjTLxiiTmkW67pttdZZmF1wnz5xOUmPy/XFDdubJo0aWyKmzQz7/xcamzHNiOv3d7kRyOmUbN25r4Pxxt7pbedHWPMDHNcNGwKNMjFRmNdDXLh9flNIODmczevh80Wl7xnKivLzTPndjehYNAUN21mWjQrNqFg0Gx9xCWmpLzCPHH6fsZXsJUZNXtJg5eiXbaZ9vY1JjccMqHoEWZSwja2Y0yiutRctW+BCUe3MeNLbTN11IumXeM8U9io2DRr1tQUNWps+g2ba1K2bcb2v9QU5oRNXnFTc/Ztg00i/fK/k4yZyuGXmoDHMpblNXmFjUyTps3MZpu3N3e99+Mqvg+yIVlXg1x4vb6V8nnjYx40pRUVZsydu5iQ32+KmjQ1LZs3NpFw2DRrv60ZPz9mPnriYhOKFJoH3/lpFfncMQtGDzL50aDxBHYyX1bGTMoxJllbaQacUmT8/rbmg3lJU77kR9OjbaHJKygyzZo1NYUFhebIpyabeMo2s74ZaFoWhkwkr8jscdi9ZunyF/sdY6dqzRv/O8Dk5eaZ4uLGprgo3xRs3dfMqU1qkIsN3Loa5MLj9Rp/g3weMkV7nGuWllea318920QCflNQ3MS0aN7E5ORETTiUY96ZnDLTxz5hWuXkm5NvGrrKfF6xcJrZp3O+sXztzJuLy03SdkwqXmM+u2EHY1nF5unJ1aaidLLp3b2RieYVuvfzgkKzy3XDTG3SNpVL/zD7bhEy4Wi+adXuAjOtJr5823YqaeLxuInFYqZ8/s9mv9ZNjLXtGaa8qkb38w3cpjbIhWXW8TjGbdu2pV+/fvTu3Tsz6T+TTCZJJBJEo2vu42ScFGUThvDylxk/bmpZNN96P47crTN+j6Fi1o+8OvwHHGPRde8DqP7yYxa23okzDurC6EGDGZ9oRO8zDyNvFQNNxBaP47W3vyPY/WBO2asdHsBO1PL+oBepCm/BMUftT9AkmPntQD78uQxjhdjx6JPZoXkuPq9FomYxI94YxJxaL132PoL9ume+2G+ACoY/+Spzcjtz8on7kB9Yu5oqWX8tWLCAZs2arbHm2hhDSUkJRUVFa1wOx6bq968ZMPxnnAa3A4v8Vt04sedeBHwWsWVzeG3wMGoThkbbHEDLeWOYQiN6HXsg074Yxhczazn21GNokRteKZ8nyqYz8PWPqNx8dy48fGs8gJOM8837A5iwMI8Tzz6FQm+CpRM+4M2v52Dw0mmPQ+ixVVv8Xg/JeCnfvPkav5QZNuu+B0fuvTVerwfjpJjz1asMGV/eYH8eb4DtDjyK3Tqs+RrJ+m3WrFm0atUKz590C5g/fz7Nmzdf82dtHOKLJ/P825+tNEhFMK+Yo485jkY5PpxEDR8MfoU5y5L42u3FrtE/+H5GKYcfcwJm3vcM/WoKux18DNu2b7JSPk9WL2Lwy2+zuLArFx2/t5tHUwkmfzKAT6cFOPysXmwetCmfOZrXR/yIbSyad9qJI3rsQMDvw0lW8/OQV/h6QZz8Zl049uj9yE3fr40xpBKlfP7ym0yuieONFnHE0ceyWVFENfsbuIULF9KkSZM/zeezZ89m8803/9Pl7KrFvPn2OywujzeYb3l8HHTCWbQvDmA5Kb4b/jI/zarB03xLenb389FnE9jh0NPZIjKTdwZ/R4ttD+SgXdutlM9TiWq+HDqYXyujnHfqEYQCfrBTzP3hbd4ZU86+Z5xNl1yoXfI7r70zgnjKkFPcnmOOPpC8cADsBNNHvc/IX+biCzbl6NOPo3l05cEsUrUlDBs0mNnBNlx8wr741rKVTdZPZWVl5ObmZvRg+e+tqzhFAZbIBiirAZbIeiqrAZbIeirbAZbI+mhTC7D0LRUREREREckSBVgiIiIiIiJZogBLREREREQkSxRgiYiIiIiIZIkCLBERERERkSxRgCUiIiIiIpIlCrBERERERESyRAGWiIiIiIhIlijAEhERERERyRIFWCIiIiIiIlmiAEtERERERCRLFGCJiIiIiIhkiQIsERERERGRLFGAJSIiIiIikiUKsERERERERLJEAZaIiIiIiEiWKMASERERERHJEgVYIiIiIiIiWaIAS0REREREJEsUYImIiIiIiGSJAiwREREREZEsUYAlIiIiIiKSJQqwREREREREskQBloiIiIiISJYowBIREREREckSBVgiIiIiIiJZogBLREREREQkSxRgiYiIiIiIZIkCLBERERERkSxRgCUiIiIiIpIlCrBERERERESyRAGWiIiIiIhIlijAEhERERERyRIFWCIiIiIiIlmiAEtERERERCRLFGCJiIiIiIhkiQIsERERERGRLFGAJSIiIiIikiUKsERERERERLJEAZaIiIiIiEiWKMASERERERHJEgVYIiIiIiIiWaIAS0REREREJEsUYImIiIiIiGSJAiwREREREZEsUYAlIiIiIiKSJQqwREREREREskQBloiIiIiISJYowBLZwBhjMmeJbNL0nRARkfXJJhlgWZaFbduZs0U2CLZt4/P5MmeLbFRs28bv92NZVmbSSrxer4Is2SAZY/B41q4o5vP5cBwnc7bIes8YgzFmre7nG4u1+1ZvZCzLIh6P64EsGxxjDNXV1UQikbW6USmPy4YqHo+Tm5ubOXuVgsGgKs1kg2TbNoFAYK3u5zk5OSQSiczZIus9BVibCI/Hg9/vp7q6WgVQ2aAYY0gkEkQikcyklViWRTgcpry8XPlcNijGGGpqasjNzV2rB3I0GqWyslL5XDYoxhjKy8vXusIsNzeX2tpatWLJBsUYQ0VFxVpXJGwsNskAy7Is8vPzicViJJNJPZRlvWeMIZVKsXTp0rUudAJEIhEcx6GmpgbHcZTXZb1mjMG2bUpLSwmFQpnJqxUIBPB6vVRUVCify3rPGIPjOFRWVuL1evH7/ZmLrJLH4yEUClFSUoJt28rnst5zHGd5pUA0Gs1M3qhtkgEW6SCrsLCQ6upqli5dqlohWS/VBVbl5eWUlJRQUFDwlwqedfnctm2WLFmyPJ/rwSzrk7rAqrKykiVLlhAOh8nJyVnrigSAvLw8fD4fixYtorq6WgVQWe/U5fPq6moWL16Mx+MhPz//L+XzSCRCTk4OS5YsoaKiQvlc1jt1FQg1NTUsXbqUZDJJQUHBX8rnGwPLrONvZtu2benXrx+9e/fOTFpvJJNJqqur1bdZ1kter5dwOEw4HP5HNyjbtqmqqiKRSOiBLOudutr5aDT6j/K5MYaqqiri8bgqzWS94/F4CAQC5OTkrPXgFqti0u/jxmIx5XNZ71iWRSAQIBqNrveDcq2rOEUBVto6vgwi/8g/KXDWp3wu6zPlc9lUKK/LpiBb+XxdWldxigIsERERERHZ5KyrOOXvt0+LiIiIiIhIAwqwREREREREskQBloiIiIiISJYowBIREREREckSBVgiIiIiIiJZogBLREREREQkS/61Ydp79eqVmSQiIiIiIvKvsyxrnQ3T/q8EWFdccQWnn356ZpKIiIiIiMi/rqCgYMMOsK677jrOO++8zCQREREREZF/3QbfgnXddddx/vnnZyaJiIiIiIj8J9ZVgKVBLkRERERERLJEAZaIiIiIiEiWKMASERERERHJEgVYIiIiIiIiWaIAS0REREREJEsUYImIiIiIiGSJAiwREREREZEsUYAlIiIiIiKSJQqwREREREREskQBloiIiIiISJYowBIREREREckSBVgiIiIiIiJZogBLREREREQkSxRgZTAmc86qGWOWTxu1NZ7nGtLWsN4mc+1ERERknahflvgnZYrMbay8ncy/V23tlqpnpf2skHk8xpi/vn35T23aAZYTY/r47+l30YnstMNO7LTjrpz9v8f4beZi4iknc2kAEjWljP/8DY7fZzu6bdmd9p135a6XP6G0NpW56DpmYOlEdtmuC49+Pj8zcTnHTjH25ZvpfswLlMZXPsbYsmkMfOM1YplJxqFq0VRuO/sQOnfpRscOXbj5mQ9ZWp0EY3BqS3jv/y5huy27sOXOB/PyF9NIGACbBZO+5MLDdqNTl6503mZfnv14IomkDXacb547h+ImLWjdujWtW7emQ+fT+akmkbFzERERkVUwDvaCEXQtbMRmm21O69at2bxVK7rsdAzv/TiHlL3q8tuqTH3uOJq3bEnXblux1VZbsdVW3Wnfuj0X3vkaiyoT2KkkL914HFtd9xlVleXcfXxX7vx2YYNt2IkahlzUlnMeH4HtrP2+nz2pOf976weSGatMeeZImjRpzGatWi0vK7Vu3ZoOnY7ju+p4w4WBWd+8TbuWvZjzd4K8NTEOidLfeeWpZymPpaie8CZbbLkDP8ypXVNsKGmbbIDl2Cm+evUOLnrsW/Y58wYGvv02bw18iUuP6MATfY9nyJiZJOyGOchJ1vLh0zdwQp9hnHv/K4wYOYIPB/0f0wf144J7PqDabrD4OmZBXiuefO4Vjt66KDOxHoNjJ0mmbJxVfCMSP73MUx9OIONUSSVKGXTDaUxqcypDPhjByKEvMuftO7nxlTEk7RSfPtuPfp8W03/wh7z5f2fxRK+jGT5+EbULJ3LmGedQcNRtjPx4JG8914d3Lz2Dz8rjJJJJ5vw2iRPvHsCHIz5kxIgRDBt6F50C3oY7FxEREVklAzjEc9vywuuDGTFiBCOGD+Oxczfj4guupjqZWutAI5VKkNv9YN77wC2TjBgxkhFDX2Xpxw/S59nvMR4vB551CwPO2xafZUilUqQyK+CNg5NKkUim/lLgcejN73De3p3xWg3np1JJ8rY+jCHv1x2TOw17/0G6B3wNFwYc2yaZTLD2od3aMY5N2Q8v8uiwiaRsh0DbvXnjxWfp1DiIlXHMsrJNMsAyjk1y/lc8M7yMAfedzrzPX+OOO+/lnttv5sOZEW577D7eeaI/syobtqzEFn3D46/8zD2Dn+KAnbrTquXmdNpqJ2649Bgmf/QsC8qSYGyqFk7j3YGv0P+Flxj65a9UJmyMSTHls/cY8fkPjBj0Ii8MeImPRk8jlrSpmvcLb7z5NourbPem4CQZ9/mHjJzQsJYkUTqND4aNYNzIgQx48U2mL6tmxozplNakcByb2mUzGDLwJV7o/yLf/zqeD98YzKJy9xzsRC3jRw2nf//+vPLOJyypShArX8x7X/zMoum/MHDgB5QnV+zLsuLktDqMy087hM7tWtGu87Yctt1mTB7xFTW2zfAPP+Koa66i+xZt6Lh9T247OsVbn44m6XjZ5eBz6X3sXrTdfHO6btuTPbstZsi3KRLJxYz9sYa9tu9Mm9ZtaNt+C7Zo35KoTwGWiIiIrC0LAhG26NCJrl270q1bV/Y86WiaLlzEUsdm4pcjeP+TX0mmA55E5TKGDX6fOVWZ3XXAH86hafMWtGzZkpYtN6PjlttyQPd2TBv6BVUYyhfPZfri6npBmwFjM2/Sl7w+8FOWxuuFNsahcv5PDHrtfebW2DhOiiUzJzDopQH0f+ElPv1xGrVJtza+dO4UFlXUrjIYDOU1olPnrnTtumLq3LE1uX4vjmOzeMY4Br40gBffHMG8iri7DWNYPO1rho75g6RtwLGpmfUd74z8nnjKJpWMs2Dy97z84gsMeHUQv8yrJGnbpBI1TP9uBK++/CIvvPACb374PUurE6SSZXz0+TiWzJ3IoIGjKK0uY+r0GcRSDsY41CyZwXuD3LLue59PoDJu4xibaV99wCdjJvHle68y4IX+vPPxGKrjyVWe58Zs0wyw7CTfv/YoTY+7gtD8N/iqqgsPP/IgjzwzgKpxQ/A235KTW0/n5S8adr2bPbI/C1ttw36bR1dcOI+X1vtewg+fv83meRaJxWM5bNt9eGz4BJzymVx+xkH875lPSDkJvnvpfnodewTXvTqJypmfceqRx/DW1CXYZhkDrr+ZH6YuwhhDKl7NI/feyOSqSIP9xxeP5sbzenNgv1GUzllCLLWAO2+7iU8ml5KsWsrFxx/NLU9/jNdezEXHHsL5N93NrCU1GAOlPz/ERf0GUVG1gP/rcxpXPfIBtm0TDXhJOR6ioQimXvOyN9CCE2++mZ3aFWNZkErGmTBrMTmt2uA1MWbNDLLbdn68Hguvz89ue+3NzxNnEG7SiVtuv4ZORUGMY7CTS5g4KUm3dhZ22e+MW5Li58f7st2WXdnp8PP4dW7FX2rOFxERkU2dASdFdVUV5RXllJUuY9i9D5LcZmuaeyxivw+j3x13sbTGLV8snTmUfk98i9dauauR49ikEnHicXeqrY0xp6SEvK4dCdg237z7JLcOnkQy3XLlODY1sz/j2H3PYl5BC6JWuvRkHOJLJ3PaPsfx6R8pCq0UyWXfcvp++/PEN0upnfctlxxzHAMnLMABvnzmSt758feVehCBW+aqqqygvKJ8+VQTS2A7Dqn4TC488gCe+qqE6gmvcf5VzxK3AQyzxgziwfcnkrANxtiU//w29zz1DrXxBHO/eIrtDziZL2ZUMuOzl+m550H8sjDG5C9e4KDjLuWXhQns0mnccMGx3PTCt6QcDz6P+z5YNBIlNvsHbrjlDmYsjZNYMp7DttqTh977CVM1l2vP7skVj43AthOMfv0Rzjv9OG76YD6xhT9x1YnH8dR3f7CpFfU2yQDLcWL8Nr6Uzlu0YcmXH9OuexcikRCBYJg773+QwkCErlttxvzJUxs0uc6ZPp28nCheb8MWF18gSCgUxmcZ3n7qPpYdcgdvPHkX5/a9kXEfP8SnDzzC1JSNMYYO+57NF4Pvos8tLzDk7v24q8/LlOd054IjGvHil5MwBmoXjOSPwIEcu3W4wX4ATNGWfPHBA1xx80V0D3nxWICTYvH4l/ncPoCPRr7EGeddzVsPXU7KWnH0gciWvPnuM1x+yTV8+sYFfP3daHw5jdl3ly40b9+Fw47sQYEfVtXqa5wU04bcyluz8+jb50D8ZhlVZR6CPgsssCwLfFBenVhRQ2EMqVg5r9x4CeNbnMgp7QMkZk5ltgXN9uvD+yOGce2Bfk494Ry+Xah3sERERGQtGWDpFM478ySOPOpIjjzqGC59agztu3bB4/HR+cDjaLZ4Jr8sKAUMY199mt1PP5jiUCBzS5RPHsVlfS/lkosv5uKLLuSM43rybWobHrj+CIJuW9kKxiFR+gtnHnMte9/7Chf06Eg44AUMdvVsrj/tbPLPeoDbLj6coKeWgdfehOfwuxjxaF8uuv4xBj5zATedfiPzUvVqtFdh8Y9DOfG4o9Ln5k7XPz+SeDzOz49fyYKdrmPkk324+Lb+PHL5zjj1eiCtiknFeKr/IA687h2evb0Pdzz3Ohe0m83HoycQbdadR4d9xd1XncNZl93OS312YvbPX4Mvlx57bkWjll059PDtKUx3T3Rsm2H972fufrcw8Jn7OOeSaxnz0SN88+jDTE6lcGybFt0OY/gTV3HBdY/xzA3b8eHXs0lkdq3cyG2SAZZl+WjeNER1TS1FrbagtLQcxwHHcZj2229U2SnKK+NEmzZucIEiebmkbDdQWhVjHKZMGE2PY06gIOQDj5fg5ofTPW8c4+Y52J4AW+68N7l+L1gW7bfsgTPzA2ZVB9m+13n8/MZgSpwkPz39f3Q+aA+ahFbuaxtp0pimwYY3CGMn+ePbD2i75x4U+SwsLJrvsDPbBVYsl9N4N5rkB8GyCDZpTsXikjV/u9OcVIyvXrqRPa//lhsffIAe7fKBAD4/OPVXNxYBv2/5jSheNo9BD13Mo18G6P/a/RQEAzTa43ym/DqOS07sQYcO3TnpvH50Dk/lnS9m1NuQiIiIyBpYFjTuwktvDOHjkR/z6Wdf8PvUEZh3b+WO78vwFO3A6YcHeOHj6VA5gecGV3LE9h0IZL7wBISbdea003rR6+QjCS/+hVktj+Hxh25iu5YrV3Kn4qU83us0PiwNsf9e3Qn53VKinUww5J4beXnSMnrstwNFES92bSUjJ85jyYzvuOPWW7n5ptsYMHgUiYUfMWUBa3xnqtnOx/LeByP5eOTHy6cHLzoUH5V88v4sttpqBzweD3j8tO+yI+Fg5hYaspMJ5s2rZo992uPDAm8e142YzdVH7kTT1l3Imfc1j9x7C+ccfxTnPfYNiTU0NxljmDL+O/Y97hQKwz7w+Ahu1pNtCicwdq7BwcdmLboR9LnXJlrcnNlzF61yHICN2SYZYHm8QXoctgdfDHybwG6XMvf9x3n761+ZMOIBLrrzVahayqARley3d8cG6221/yFUzplPVbzhKC6xsp+47OBT+WxmGQYLY+qHLgbjWG4rjzE4KXt5dYjjGCCXoM9H4+a7s0XqI979agI3vjaXA3bZEd8qbgR+nw/LkzHfssBy91uXYrwePPWOwtOkmABui1N6ieVpq2ZIxsoZcUdvej/xC8M+eo/jdmqLz+PBshrRtHkp8xYaNzC1HRbMmUqbzRoBEKsu58Frz+CO93N4/f3n2aGJD68HkvE4VeXlGI8Hy3K7FkaDIUorKjN3LiIiIrJ6lgefz4ff78fvD+DP78b+PVrw2js/gSfA1gefzg9PvMa3nw9nSvGxdG5XvMpeOsHCZuy86y7suvch3PviK3T5+iGuffRNahMrdyf0+CPsd8sg7j+imKvPu5el1e67RZbXx7Zn3Mpr/Q7j1lP/x2/LYu5rYl4vWx50Gr3POouzzz2LC6+6mU+/+JAdm6y6x1Adj8eDz+dPn5s7eT0eLAs8HgvjOKstxtXNNsZQU13/3bH6qRbJZJx4TRXDHr6Ak+4eztYHnMRNDzzO/527A741HRzuta9fznW7bK5IC+TnuT2scJsAU7W1q22c2FhtkgGW5fGSu8/F7O35iCdH/MGNt13Bku+H8dGUfG6/8UxGvHAnqT2P5YDNQg3Wi3TvzVEtZnPpfe+zqLKWRDJJbU0VnwzozweLatg8L8K2O+/D8GcfYWF5LbFYLeW/vMQEZ2d2aWHhMUl+GzuKyupaEvE4v34/nPCux9E+308gvzEX7N2aV++5l8ltzmaHjgVr/eFYHh+te5zAvM8+YmZljFislmkff8zozGHZV/OFcRwH22446o6djPPjwJu45P0K7n74/+jeLAdjp0gmU1heLzvs0IE3X/2Bqtpaakpn88jrk9h/l22gdgmPXXIY7y/YilcH30u7ogDJeJyUbfj9vbvY8/CzmbSgnGQywdI/xjF9fpCee3ert2cRERGRP+HYJBIJYrEYsdpaastnMnrsQg7Yd0u8Ph+tO+9Mx8QH3PX01+x11bk0XkWvIHBfc7A8Xrw+H5FGHXlo4H0sePcx7v94OqkGFebg8YbZervOnHHVNTRf9Bovfz6ZRNLB4/HStkM7ehx9Efs3+5bHXhhG0hulx5bN+eOX8TRr3oLmzZpS9ssQjrnoBarcevHVsu0UiUTMPbf0FE8kMORw6MndGTPqIyricWprqpk4bhS1SQCLYDTKkinTqIzVEq+t5uMvp2KMwesP0r5NPh9/MIHKWJx47TJePXs3bhv0JT+OGs/RV1zDblttQdOiEF//OJdkKokx7gGm7BS24ywPkCyPh6133Y8PnnyQ+WU1bln311cZm9iR3TfzuIHVmk5uE7G2ZfiNi+XB48vn4n63UDrweq55fBibbb0HO7YN89yNF/HK/F254eyDiWQMh+kPFXHFrTezaGg/jj7+Ap4a8ByXn7YvV/X/hSueeooOTaIcftblbPfHG5zb93qee/hO9j3raY647FJaeb14gJnfD+TYyx7g0ZvP54L+s3niniMoCHjx+kMcfPaJTBo1guOu7kPjsL/BvgE8Xi9er3fFkJ6WF7/Ph88foLjLcRzS/FdOPf5cXnz2Afre8xKOMVgeDx6fD5/X67aiYWF5PAQDfizLwt+iI7GpP/LawGGU1muYs0t+5Kbr3ySY6+HjV+7niisuo0/fvtz/zCfYXh+9+/ZlyVt9uPGex7jhyj58GzyDUw/szqKpX/LMyElY9gKevv1aLuvbhz59+/Dqzyla9zyHE5rO4tTTr+SpJ+7myJ592er8mzmi/crN8CIiIiKrZFkEauZz641X06dvHy699AL22ecYfm5+OP93QBE+j4dgUWsuPqiITyakuOqwpvi9Kxd5vT4/Pp+v3lDpHoq6H8f5h3Vh4O1XMbvCxusP4PN602UwH4FAgNBmu3HfbafT/7q7+ak0icfrI+j3E2jUnoeevpkJLz3Lx0s8nHzXfeSNfpoj+z7I43deynk3vMP5t19BiwD4/AG8Hu9Kdd9en5/KKV9x5eV96ZMuQ/Xp24e+l1/ORzM9dOr9MHvbwzjq9H48csfFXP/ISCyfHwvYvNsRtJzxGBdd+yAP3no+I2dU4/d58QZCnH1ub6a+3peb7n+aW/qezcPTWnBMj13pcfg+DL32PB597jmuP+9UxtVGqKypBCzym7Whev4Y3njlc8qNB6/Ph9/r4cBT+7L7krc595LreP6xezjgrMc5+JJLaeNzy6Veb/q8rPQ19nrwbGJBl2XWcZtd27Ztue666zj//PMzk9YLxk4wc/IvzPhjCbbHT4v23enWtgnezG54dYxDrGIRP0/4jZKqJJ5gHp26dad1k/zlAXuifC5jx0+hPA5FLTuybdfN8VtxXux9MF+0PIc+PZuxuMqiTddt6dCyAK/HHTo+kZjEkdtfyQujh9I8GlrpS5eonMeEqSV037o7IZ8F8Qq+G/sLzTpsS+tGQeLlixg3/hfK4x6aBuZw3pUv8cKwEbQyf/Db0ig7dG9B0Aup6nl8OaGcfXbuimXiTB3/I3MrbHbYbR/yQ25DV6JsHl//+CvxBr+A56Gw6RbssF17fEDZH78xbspcTLCQrbbfjuKwl/LF0xn78+/EM/rvbr7tfnRpEiBVW8pv435iUWWSghYd2LpLGyL6HSwRERFZKwYntpSvvvyJmrof9rUsgtFGbLnNVhTnBN3XM5IxFg29nBM+7sInj11McBW/IVUx+yd+LQmzw5adCdTrF1e9eAZjJs6n/ZbbwpLJ/OFpww6tc/hj0liczbalQ3GEVE0Zo3+aQFHrbhRWTmRhuCNbtmkCdoKJ48dQU9CVHdsXUlsyl7HjJlFtWzTevCNbdW6N3wOzfvqURPNtad+sqMFvYVXM+pHRU5e6Q63X4/EFaLfNHnQoDhCrWMjYMb9QTYimzZtStqSWnfbZhjAOi2b8xm8z5mOCBWzXuQmT5yfZfsv2BLxQNn8GY3+bScoXpuu2O9GyIIRdW8aEsT+yuCpF0Wad6NzUMPmPGrbZuisBT5xJo79lQW0O3bo0Y9qMeXTbdmcKI15SlfP5adxkSmMOhS06sl23Vvgth3m/jack0ILuHZqBMZTOm8jEsnx26tyCQPq9rPVJ27Zt6devH717985M+kc2+QCLdD9VjMFgpV9nygxtMhmMMe4PylnuoBINVjGmrkcqVrr5GdwA69struKpG3pimXSztAVOqprpo8fw42f9eXnhbgx56FxCq7gR1G3X3WfdLAPYLPr1VXpe/DF33301bQsdPn7hTl6e1YXhr99Bkd89khXH6B573Xkub/atfxJ159AgezS8Pg3S6o5pleuBZbl9h+v2bYxJn/+fXWsRERGRhoxx3HJYWv0yRXzZHL7/aSxv3HotXW77lIv32QzfKirOV1n+WUUZBiws0mWw5cuny4H1l8qYX/9vt9y1chlq1fteedt15azMfaxIXkXZbFVpxmDS1yo9t0G5rN5KWKva3krlvTWfV+bf65t1FWCtf6Hkf8Cy3G5zHs/aFvgtLMuDx+M2ea60Sjrjuml1iRbhSJhQOOSmeVasZ0wtw+49mxs/DHH/HefgX90P7zb4QtTNsrAsL8WdTuDh0zfnhrOO5IBDjubryBGMePlGCgN1y9RbiYbn6aZnnETdOXjS57mK61O3XoNjWuV6dcEVy/ftzsu8cCIiIiJ/bnk5bHk5o175ZOEPXHDBNZQf9TgX7r0Z3tWUN1ZZ/sks39SVoer9nV5qpeUy59f/e3VlqEzu/IbntqK8ufI+MreTOX+ltLptrZibPj73Gi6fVre9FRtLr7eKfazh702FWrD+NYZkIgWWha/ecObgdg9MpVIkbQiFAn+rn6oxBsdOEk8kMVjp0Wd8f2tbIiIiIhsqO5V0f1bH8hIKrPxOu0gdtWBt8Cz8ATfoyQx5LI8XfyBIJBz82wGRZVl4fQEikSjRSIRgwP+3tyUiIiKyofL6/ASDIQVX8p9RgCUiIiIiIpIlCrBERERERESyRAGWiIiIiIhIlijAEhERERERyRIFWCIiIiIiIlmiAEtERERERCRLFGCJiIiIiIhkiQIsERERERGRLFGAJSIiIiIikiUKsERERERERLLEMsaYzJnZ1LZtW6677jrOO++8zCQREREREZF/nWVZtG3bln79+tG7d+/M5H/kXwmw+vTpw8knn5yZJCIiIiIi8q9r1qzZhh1grYsDFxERERER+bvWVZyyzgOsNm3acOGFF3LMMcdkJomIiIiIiPwnevTowQ033MCFF16YmfSPrPMAq3nz5ixcuDBztoiIiIiIyH/q9ttv58Ybb8yc/Y+s8wBrzpw5JBIJwuFwZpKIiIiIiMh/prCwkEgkkjn7H1nnAZaIiIiIiMimQr+DJSIiIiIikiUKsERERERERLJEAZaIiIiIiEiWKMASERERERHJEgVYIiIiIiIiWfL/bYhUp8pNiRwAAAAASUVORK5CYII=;" vertex="1" parent="1">
          <mxGeometry x="-60" y="150" width="856" height="299" as="geometry" />
        </mxCell>
        <mxCell id="7k4Pl-tjhXPAWQmDhLkh-2" value="" style="rounded=0;whiteSpace=wrap;html=1;strokeOpacity=100;fillOpacity=0;strokeWidth=2;" vertex="1" parent="1">
          <mxGeometry x="-60" y="150" width="860" height="60" as="geometry" />
        </mxCell>
        <mxCell id="7k4Pl-tjhXPAWQmDhLkh-3" value="&lt;font&gt;Thẻ nav: chứa 1 thẻ div bên trái và 1 list bên phải&lt;/font&gt;" style="text;html=1;align=center;verticalAlign=middle;whiteSpace=wrap;rounded=0;fontSize=25;" vertex="1" parent="1">
          <mxGeometry x="90" y="100" width="600" height="30" as="geometry" />
        </mxCell>
        <mxCell id="7k4Pl-tjhXPAWQmDhLkh-4" value="" style="rounded=0;whiteSpace=wrap;html=1;strokeOpacity=100;fillOpacity=0;strokeWidth=2;" vertex="1" parent="1">
          <mxGeometry x="-20" y="210" width="780" height="180" as="geometry" />
        </mxCell>
        <mxCell id="7k4Pl-tjhXPAWQmDhLkh-5" value="&lt;font&gt;Thẻ footer: 2 thẻ p&lt;/font&gt;" style="text;html=1;align=center;verticalAlign=middle;whiteSpace=wrap;rounded=0;fontSize=25;" vertex="1" parent="1">
          <mxGeometry x="-10" y="460" width="360" height="30" as="geometry" />
        </mxCell>
        <mxCell id="7k4Pl-tjhXPAWQmDhLkh-6" value="&lt;font&gt;thẻ main&lt;/font&gt;" style="text;html=1;align=center;verticalAlign=middle;whiteSpace=wrap;rounded=0;fontSize=25;" vertex="1" parent="1">
          <mxGeometry x="810" y="270" width="130" height="30" as="geometry" />
        </mxCell>
        <mxCell id="7k4Pl-tjhXPAWQmDhLkh-8" value="" style="rounded=0;whiteSpace=wrap;html=1;strokeOpacity=100;fillOpacity=0;strokeWidth=2;" vertex="1" parent="1">
          <mxGeometry x="-20" y="210" width="780" height="90" as="geometry" />
        </mxCell>
        <mxCell id="7k4Pl-tjhXPAWQmDhLkh-9" value="2 thẻ side và 1 thẻ article" style="text;html=1;align=center;verticalAlign=middle;whiteSpace=wrap;rounded=0;fontSize=25;" vertex="1" parent="1">
          <mxGeometry x="-270" y="240" width="220" height="30" as="geometry" />
        </mxCell>
        <mxCell id="7k4Pl-tjhXPAWQmDhLkh-10" value="&lt;font&gt;4 thẻ div&lt;/font&gt;" style="text;html=1;align=center;verticalAlign=middle;whiteSpace=wrap;rounded=0;fontSize=25;" vertex="1" parent="1">
          <mxGeometry x="-180" y="330" width="100" height="30" as="geometry" />
        </mxCell>
      </root>
    </mxGraphModel>
  </diagram>
</mxfile>
